<svg xmlns="http://www.w3.org/2000/svg" viewBox="0 0 96 96">
  <!-- Background circle -->
  <circle cx="48" cy="48" r="44" fill="#fef2f6"/>
  <!-- Shield -->
  <path d="M48 16c-16 6-26 8-26 8v26c0 14 10 22 26 28 16-6 26-14 26-28v-26s-10-2-26-8z" fill="#e88aab"/>
  <path d="M48 22c-12 4.5-20 6-20 6v22c0 11 7.5 17 20 22 12.5-5 20-11 20-22v-22s-8-1.5-20-6z" fill="#d47494"/>
  <!-- Lock body -->
  <rect x="37" y="48" width="22" height="17" rx="4" fill="#fff"/>
  <!-- Lock shackle (filled path, no stroke) -->
  <path d="M41 48v-7c0-4.5 3-8 7-8s7 3.5 7 8v7h-4v-7c0-2.2-1.3-4-3-4s-3 1.8-3 4v7z" fill="#fff"/>
  <!-- Keyhole -->
  <circle cx="48" cy="55" r="3.5" fill="#d47494"/>
  <rect x="46.5" y="55" width="3" height="6" rx="1" fill="#d47494"/>
</svg>